<?xml version="1.0" encoding="UTF-8"?>
<svg id="_레이어_1" data-name="레이어 1" xmlns="http://www.w3.org/2000/svg" viewBox="0 0 1012 215">
  <defs>
    <style>
      .cls-1 {
        fill: #1e3669;
      }

      .cls-2 {
        fill: none;
      }

      .cls-3 {
        fill: #727171;
      }

      .cls-4 {
        fill: #3e3a39;
      }
    </style>
  </defs>
  <g>
    <g>
      <g>
        <path class="cls-4" d="M429.17,138.93c-.43,0-.69-.13-.8-.37s-.16-.55-.16-.9v-34.31h-34.2c-.78,0-1.17-.46-1.17-1.39v-11.83c0-.71.39-1.07,1.17-1.07h87.59c.14,0,.28.04.43.11.35.21.53.46.53.75v12.36c0,.71-.32,1.07-.96,1.07h-35.27v34.31c0,.85-.36,1.28-1.07,1.28h-16.09ZM402.75,54.64c-.85,0-1.28-.35-1.28-1.07v-11.83c-.07-.14-.07-.32,0-.53.14-.43.5-.64,1.06-.64h68.52c.43,0,.78.16,1.06.48s.43.69.43,1.12v18.01c0,1.92-.11,3.77-.32,5.54s-.5,3.59-.85,5.43c-.36,1.85-.82,3.8-1.39,5.86-.57,2.06-1.21,4.33-1.92,6.82-.07.22-.18.39-.32.53-.14.14-.29.27-.43.37-.14.11-.32.12-.53.05l-15.88-2.13c-.36-.07-.59-.25-.69-.53s-.09-.57.05-.85c.64-2.13,1.19-4.05,1.65-5.75.46-1.71.85-3.36,1.17-4.96.32-1.6.57-3.18.75-4.74.18-1.56.27-3.23.27-5.01v-6.18h-51.36Z"/>
        <path class="cls-4" d="M546.27,106.96c-1.63,1.92-3.34,3.55-5.11,4.9-1.78,1.35-3.52,2.43-5.22,3.25-1.71.82-3.34,1.4-4.9,1.76-1.56.36-2.91.53-4.05.53h-30.47V44.63c0-1,.43-1.49,1.28-1.49h48.91c.92,0,1.38.43,1.38,1.28v52.74c0,1.85-.11,3.55-.32,5.12-.21,1.56-.71,3.13-1.49,4.69ZM527.2,103.45c1.63,0,2.72-.28,3.25-.85.53-.57.8-1.77.8-3.62v-41.56h-17.79v46.03h13.75ZM562.37,138.93c-.72,0-1.07-.46-1.07-1.39V38.77c0-.92.36-1.39,1.07-1.39h15.12c.36,0,.64.12.86.37.21.25.32.55.32.91v98.88c0,.92-.39,1.39-1.18,1.39h-15.12Z"/>
        <path class="cls-1" d="M659.23,142.12c-.43,0-.7-.11-.81-.32s-.16-.5-.16-.85v-20.78h-52.53c-.21,0-.46-.07-.75-.21s-.43-.46-.43-.96v-11.3c0-.85.39-1.28,1.17-1.28h25.36v-10.12h-34.63c-.78,0-1.17-.46-1.17-1.39v-10.87c0-.28.09-.55.27-.8.18-.25.48-.37.9-.37h87.59c.14,0,.28.04.43.11.35.21.53.5.53.85v11.3c0,.78-.32,1.17-.96,1.17h-34.85v10.12h25.14c.86,0,1.29.46,1.29,1.39v33.14c0,.78-.32,1.17-.97,1.17h-15.44ZM600.09,64.98c-.07-.21-.07-.43,0-.64.14-.43.46-.67.96-.75,3.41-.5,6.82-1.24,10.23-2.24s6.5-2.33,9.27-4c2.77-1.67,5.02-3.78,6.77-6.34,1.74-2.56,2.61-5.72,2.61-9.48v-4.58c0-.28.05-.55.16-.8.11-.25.41-.37.91-.37h17.69c.35,0,.62.12.8.37.18.25.27.55.27.91v4.47c0,3.41.67,6.34,2.02,8.79,1.35,2.45,3.22,4.49,5.6,6.13,2.38,1.63,5.17,2.93,8.36,3.89,3.2.96,6.61,1.65,10.23,2.08.49.07.82.21.96.43s.21.43.21.64v12.36c0,.21-.07.48-.21.8-.14.32-.47.48-.96.48-3.2-.07-6.54-.44-10.02-1.12-3.48-.67-6.84-1.71-10.07-3.09-3.23-1.39-6.23-3.11-9-5.17-2.77-2.06-5.12-4.51-7.03-7.35-1.92,2.63-4.16,4.92-6.71,6.87-2.56,1.95-5.31,3.64-8.26,5.06-2.95,1.42-6.04,2.58-9.27,3.46-3.24.89-6.45,1.58-9.65,2.08-.71.07-1.21-.21-1.49-.85l-4.37-12.04Z"/>
        <path class="cls-1" d="M746.28,85.54c-1.63,1.92-3.34,3.5-5.11,4.74-1.78,1.24-3.52,2.22-5.22,2.93-1.71.71-3.34,1.19-4.9,1.44-1.56.25-2.91.37-4.05.37h-29.41v-54.13c0-1,.43-1.49,1.28-1.49h47.85c.92,0,1.38.43,1.38,1.28v35.06c0,1.85-.11,3.55-.32,5.12-.21,1.56-.71,3.13-1.49,4.69ZM715.06,141.17c-.57,0-1.08-.13-1.55-.37-.46-.25-.69-.87-.69-1.86v-34.21c0-.21.07-.44.21-.69.14-.25.46-.37.96-.37h15.67c.71,0,1.06.36,1.06,1.06v21.85h24.72c1.35,0,3.27-.05,5.75-.16,2.49-.11,5.08-.28,7.78-.53,2.7-.25,5.29-.53,7.78-.85,2.49-.32,4.44-.69,5.86-1.12.28-.14.55-.13.8.05.25.18.37.44.37.8v12.47c0,.92-.32,1.38-.96,1.38-1.56.35-3.53.69-5.91,1.01-2.38.32-4.87.59-7.46.8-2.59.21-5.13.39-7.62.53-2.49.14-4.62.21-6.39.21h-40.38ZM727.63,81.28c2.41,0,3.62-1.39,3.62-4.16v-23.66h-16.73v27.81h13.1ZM765.89,108.13c-.71,0-1.07-.46-1.07-1.38v-20.99h-12.25c-.85,0-1.28-.46-1.28-1.38v-11.08c0-.85.43-1.28,1.28-1.28h12.25v-10.12h-12.25c-.85,0-1.28-.46-1.28-1.39v-11.08c0-.85.43-1.28,1.28-1.28h12.25v-9.48c0-.85.35-1.28,1.07-1.28h15.13c.78,0,1.17.46,1.17,1.39v67.98c0,.92-.39,1.38-1.17,1.38h-15.13Z"/>
        <path class="cls-4" d="M837.07,66.68v8.1c0,3.62.28,7.05.85,10.28.57,3.23,1.55,6.13,2.97,8.69,1.41,2.56,3.37,4.74,5.88,6.55,2.51,1.81,5.67,3.11,9.49,3.89l.64.21c.42.14.64.43.64.85v13.32c0,.28-.11.57-.32.85-.21.29-.53.43-.96.43-6.88-1.06-12.61-3.23-17.18-6.5-4.57-3.27-8.31-7.53-11.22-12.79-1.07,2.27-2.47,4.46-4.18,6.55-1.72,2.1-3.68,4.05-5.88,5.86s-4.59,3.43-7.14,4.85c-2.56,1.42-5.22,2.56-7.99,3.41-.78.21-1.28.04-1.49-.53l-5.75-11.93c-.21-.57-.18-1,.11-1.28.14-.14.32-.25.53-.32,3.91-1.56,7.32-3.32,10.23-5.28,2.91-1.95,5.29-4.23,7.14-6.82,1.85-2.59,3.23-5.56,4.16-8.9.92-3.34,1.38-7.14,1.38-11.4v-8.1h-18.22c-.78,0-1.17-.46-1.17-1.38v-11.72c0-.71.39-1.06,1.17-1.06h15.45c.99-.85,1.88-1.97,2.66-3.36.78-1.39,1.17-2.82,1.17-4.31v-9.48h17.79v8.2c0,1.35-.49,2.91-1.47,4.69-.98,1.78-2.17,3.2-3.57,4.26h22.83c.14-.07.28-.07.43,0,.35.21.53.5.53.85v12.15c0,.78-.32,1.17-.95,1.17h-18.55ZM866.06,138.93c-.72,0-1.07-.46-1.07-1.39V38.77c0-.92.35-1.39,1.07-1.39h15.12c.36,0,.64.12.86.37.21.25.32.55.32.91v98.88c0,.92-.39,1.39-1.18,1.39h-15.12Z"/>
        <path class="cls-4" d="M909.53,109.41v-28.45c0-.78.35-1.17,1.07-1.17h15.22c.71,0,1.07.39,1.07,1.17v28.45h2.66c2.13,0,4.55-.12,7.25-.37,2.7-.25,5.38-.59,8.04-1.01,2.67-.43,5.19-.92,7.57-1.49,2.38-.57,4.32-1.17,5.81-1.81.5-.07.75.18.75.75v12.68c0,.35-.11.64-.32.85-.14.07-.25.14-.32.21-1.42.57-3.23,1.12-5.43,1.65-2.2.53-4.55,1.01-7.03,1.44-2.49.43-5.04.76-7.67,1.01-2.63.25-5.08.37-7.35.37h-35.38c-.64,0-.96-.36-.96-1.07v-12.26c0-.64.32-.96.96-.96h14.07ZM899.4,55.92c-.85,0-1.28-.35-1.28-1.07v-12.04c-.07-.14-.07-.32,0-.53.14-.43.49-.64,1.06-.64h52.95c.43,0,.78.16,1.07.48.29.32.43.69.43,1.12v26.32c0,1.92-.11,3.96-.32,6.13-.22,2.17-.5,4.37-.86,6.61-.36,2.24-.79,4.44-1.29,6.61-.5,2.17-1.04,4.18-1.61,6.02-.07.21-.18.39-.32.53-.14.14-.29.27-.43.37-.14.11-.32.12-.54.05l-15.31-2.56c-.36-.07-.59-.25-.69-.53-.11-.28-.09-.57.05-.85.99-3.2,1.77-6.7,2.34-10.5.57-3.8.85-7.47.85-11.03v-14.49h-36.12ZM963.77,138.93c-.78,0-1.18-.43-1.18-1.28V38.77c0-.92.39-1.39,1.18-1.39h15.12c.71,0,1.07.43,1.07,1.28v36.44h13c.78,0,1.17.43,1.17,1.28v12.57c0,1-.39,1.49-1.17,1.49h-13v47.2c0,.85-.36,1.28-1.07,1.28h-15.12Z"/>
      </g>
      <g>
        <path class="cls-3" d="M408.41,190.61c-1.26-.53-2.33-1.3-3.22-2.3-.9-1-1.59-2.22-2.1-3.67-.5-1.45-.76-3.09-.76-4.92s.26-3.47.77-4.92,1.23-2.69,2.16-3.7c.92-1.02,2.02-1.79,3.28-2.33,1.27-.53,2.65-.8,4.15-.8.78,0,1.5.08,2.16.25s1.26.37,1.79.63,1.01.55,1.43.89c.42.34.8.69,1.12,1.03l-1.54,1.85c-.58-.6-1.24-1.1-2-1.53-.76-.42-1.73-.63-2.9-.63s-2.16.21-3.08.63c-.92.42-1.71,1.03-2.36,1.82s-1.15,1.75-1.51,2.88-.54,2.41-.54,3.82.16,2.7.49,3.86c.33,1.15.81,2.13,1.45,2.93.64.8,1.42,1.42,2.36,1.85s2.01.65,3.22.65c.82,0,1.6-.12,2.33-.35.73-.24,1.32-.56,1.77-.97v-5.92h-4.78v-2.37h7.4v9.5c-.72.76-1.68,1.39-2.88,1.88-1.2.49-2.58.74-4.12.74s-2.85-.27-4.1-.8Z"/>
        <path class="cls-3" d="M440.79,190.92c-.99-.33-1.85-.88-2.58-1.65s-1.3-1.78-1.71-3.02c-.41-1.24-.62-2.77-.62-4.58v-13.26h2.87v13.36c0,1.36.13,2.49.4,3.41.27.92.64,1.65,1.11,2.2.47.56,1.03.95,1.67,1.19.64.24,1.33.35,2.07.35s1.47-.12,2.13-.35c.66-.24,1.23-.63,1.71-1.19.48-.55.86-1.29,1.14-2.2.28-.92.42-2.05.42-3.41v-13.36h2.75v13.26c0,1.81-.21,3.34-.62,4.58-.41,1.24-.98,2.25-1.71,3.02s-1.59,1.32-2.59,1.65c-1,.33-2.07.49-3.22.49s-2.22-.16-3.21-.49Z"/>
        <path class="cls-3" d="M477.13,180.5c.27.78.53,1.57.79,2.36s.53,1.58.82,2.36h.15c.27-.78.53-1.57.77-2.36s.5-1.58.77-2.36l4.32-12.09h3.45v22.61h-2.68v-12.52c0-.49.01-1.02.03-1.59s.05-1.14.09-1.73c.04-.59.08-1.17.12-1.74.04-.58.08-1.11.12-1.61h-.12l-1.79,5.15-4.29,11.75h-1.91l-4.29-11.75-1.79-5.15h-.12c.02.49.05,1.03.09,1.61.04.57.08,1.16.11,1.74.03.59.06,1.16.09,1.73.03.57.04,1.1.04,1.59v12.52h-2.59v-22.61h3.45l4.35,12.09Z"/>
        <path class="cls-3" d="M508.35,191.01h-2.87v-22.61h2.87v22.61Z"/>
        <path class="cls-3" d="M545.5,190.52c-1.35-.59-2.51-1.42-3.5-2.47l1.7-1.94c.82.86,1.78,1.55,2.87,2.05,1.09.51,2.22.76,3.39.76,1.48,0,2.64-.34,3.49-1.02s1.26-1.57,1.26-2.68c0-.58-.1-1.06-.29-1.47s-.46-.75-.8-1.03-.74-.55-1.19-.79c-.45-.24-.95-.48-1.48-.73l-3.27-1.42c-.51-.23-1.04-.5-1.59-.82s-1.04-.71-1.48-1.17c-.44-.46-.81-1.01-1.1-1.63-.29-.63-.43-1.35-.43-2.18s.18-1.67.54-2.41c.36-.74.85-1.38,1.48-1.91s1.38-.95,2.25-1.25c.87-.3,1.82-.45,2.85-.45,1.36,0,2.61.25,3.75.76,1.14.51,2.11,1.19,2.91,2.05l-1.51,1.82c-.7-.66-1.47-1.18-2.31-1.56-.84-.38-1.79-.57-2.84-.57-1.29,0-2.32.29-3.08.88-.76.59-1.14,1.4-1.14,2.45,0,.55.11,1.03.34,1.42.23.39.51.73.86,1.02s.75.53,1.2.74c.45.21.89.4,1.33.59l3.24,1.39c.66.29,1.27.61,1.84.96s1.06.76,1.48,1.23c.42.47.75,1.02.99,1.65s.35,1.36.35,2.2c0,.88-.18,1.72-.54,2.5-.36.78-.87,1.47-1.53,2.05-.66.59-1.47,1.04-2.42,1.37-.96.33-2.02.49-3.19.49-1.6,0-3.08-.3-4.43-.9Z"/>
        <path class="cls-3" d="M580.95,180.5c.27.78.53,1.57.79,2.36s.53,1.58.82,2.36h.15c.27-.78.53-1.57.77-2.36s.5-1.58.77-2.36l4.32-12.09h3.45v22.61h-2.68v-12.52c0-.49.01-1.02.03-1.59s.05-1.14.09-1.73c.04-.59.08-1.17.12-1.74.04-.58.08-1.11.12-1.61h-.12l-1.79,5.15-4.29,11.75h-1.91l-4.29-11.75-1.79-5.15h-.12c.02.49.05,1.03.09,1.61.04.57.08,1.16.11,1.74.03.59.06,1.16.09,1.73.03.57.04,1.1.04,1.59v12.52h-2.59v-22.61h3.45l4.35,12.09Z"/>
        <path class="cls-3" d="M641.01,171.24c1.77,1.89,2.65,4.69,2.65,8.39,0,1.79-.23,3.39-.69,4.8-.46,1.41-1.14,2.6-2.04,3.58-.9.98-2,1.72-3.3,2.24-1.31.51-2.81.77-4.52.77h-5.8v-22.61h5.67c3.58,0,6.25.95,8.02,2.84ZM638.73,186.3c1.31-1.58,1.97-3.8,1.97-6.66s-.64-5.14-1.93-6.65c-1.29-1.51-3.3-2.27-6.03-2.27h-2.56v17.95h2.56c2.67,0,4.67-.79,5.98-2.37Z"/>
        <path class="cls-3" d="M672.66,170.81h-10.18v7.1h8.57v2.44h-8.57v8.24h10.52v2.44h-13.39v-22.61h13.05v2.41Z"/>
        <path class="cls-3" d="M700.05,182.65l2.41,4.66h.15c-.08-1.17-.16-2.37-.25-3.58s-.12-2.41-.12-3.58v-11.75h2.72v22.61h-2.93l-8.24-14.28-2.44-4.66h-.12c.06,1.17.13,2.34.22,3.51.08,1.17.12,2.36.12,3.55v11.88h-2.71v-22.61h2.96l8.24,14.25Z"/>
        <path class="cls-3" d="M720.1,168.4h16.56v2.41h-6.85v20.2h-2.87v-20.2h-6.85v-2.41Z"/>
        <path class="cls-3" d="M750.32,191.01h-2.9l7.68-22.61h3.18l7.68,22.61h-3.02l-2.16-6.91h-8.27l-2.19,6.91ZM757.82,174.56c-.37-1.24-.74-2.52-1.11-3.84h-.12c-.35,1.36-.71,2.65-1.08,3.87-.37,1.22-.76,2.48-1.17,3.78l-1.11,3.46h6.85l-1.08-3.46c-.41-1.29-.8-2.56-1.17-3.81Z"/>
        <path class="cls-3" d="M783.11,188.58h9.87v2.44h-12.74v-22.61h2.87v20.17Z"/>
        <path class="cls-3" d="M830.72,190.61c-1.2-.53-2.24-1.3-3.12-2.3-.88-1-1.56-2.22-2.07-3.67-.51-1.45-.76-3.09-.76-4.92s.25-3.47.76-4.92c.5-1.45,1.2-2.69,2.1-3.7.89-1.02,1.95-1.79,3.18-2.33,1.22-.53,2.56-.8,4-.8.68,0,1.33.08,1.94.23.62.15,1.19.37,1.71.63.53.27,1,.57,1.42.89.42.33.8.68,1.13,1.05l-1.54,1.85c-.6-.64-1.27-1.16-2.02-1.56-.75-.4-1.62-.6-2.61-.6-1.07,0-2.04.21-2.92.63-.87.42-1.62,1.03-2.25,1.82s-1.11,1.75-1.45,2.88-.51,2.41-.51,3.82.17,2.7.49,3.86c.33,1.15.8,2.13,1.4,2.93.61.8,1.35,1.42,2.22,1.85.87.43,1.84.65,2.91.65s2.08-.23,2.92-.68c.83-.45,1.61-1.07,2.33-1.85l1.57,1.79c-.92,1.05-1.94,1.85-3.05,2.41-1.11.56-2.41.83-3.89.83-1.4,0-2.7-.27-3.9-.8Z"/>
        <path class="cls-3" d="M859.73,188.58h9.87v2.44h-12.74v-22.61h2.87v20.17Z"/>
        <path class="cls-3" d="M887.55,191.01h-2.87v-22.61h2.87v22.61Z"/>
        <path class="cls-3" d="M916.03,182.65l2.41,4.66h.15c-.08-1.17-.16-2.37-.25-3.58s-.12-2.41-.12-3.58v-11.75h2.72v22.61h-2.93l-8.24-14.28-2.44-4.66h-.12c.06,1.17.13,2.34.22,3.51.08,1.17.12,2.36.12,3.55v11.88h-2.71v-22.61h2.96l8.24,14.25Z"/>
        <path class="cls-3" d="M941.07,191.01h-2.87v-22.61h2.87v22.61Z"/>
        <path class="cls-3" d="M962.99,190.61c-1.2-.53-2.24-1.3-3.12-2.3-.88-1-1.56-2.22-2.07-3.67-.51-1.45-.76-3.09-.76-4.92s.25-3.47.76-4.92c.5-1.45,1.2-2.69,2.1-3.7.89-1.02,1.95-1.79,3.18-2.33,1.22-.53,2.56-.8,4-.8.68,0,1.33.08,1.94.23.62.15,1.19.37,1.71.63.53.27,1,.57,1.42.89.42.33.8.68,1.13,1.05l-1.54,1.85c-.6-.64-1.27-1.16-2.02-1.56-.75-.4-1.62-.6-2.61-.6-1.07,0-2.04.21-2.92.63-.87.42-1.62,1.03-2.25,1.82s-1.11,1.75-1.45,2.88-.51,2.41-.51,3.82.17,2.7.49,3.86c.33,1.15.8,2.13,1.4,2.93.61.8,1.35,1.42,2.22,1.85.87.43,1.84.65,2.91.65s2.08-.23,2.92-.68c.83-.45,1.61-1.07,2.33-1.85l1.57,1.79c-.92,1.05-1.94,1.85-3.05,2.41-1.11.56-2.41.83-3.89.83-1.4,0-2.7-.27-3.9-.8Z"/>
      </g>
    </g>
    <g>
      <path class="cls-2" d="M141.73,174.61c-2.02.25-2.22.27-4.18.46l-2.06.2.95-1.84c.97-1.86,1.91-3.81,2.83-5.8-1.7.15-3.39.27-5.07.37-1.2,2.51-2.44,4.89-3.69,7.09l-.31.54-.62.03c-2.53.13-5.06.2-7.54.22-1.04,0-2.05,0-3.04,0h-1.01s-.1-1.01-.1-1.01c-.22-2.17-.46-4.4-.72-6.65-1.52-.06-3.01-.13-4.48-.23.25,2.17.48,4.33.69,6.44l.13,1.31-1.32-.07c-.99-.05-1.55-.08-1.89-.09-.32,0-.43,0-.5,0-.13,0-.16,0-.38-.04-.15-.02-.45-.07-1.18-.17-.02,0-.04,0-.06,0-.21,0-.35.08-.46.25-.04.07-.07.15-.1.24-.11.34-.11.82.13,1.27.35.65,1.06.99,2.07,1,3.63.4,4.39.39,8.05.34,1.09-.02,2.43-.04,4.16-.05,6.3-.05,11.04-.22,18.04-1.02,1.22-.07,2.16-.92,2.54-1.68.23-.46.22-.79.15-.88-.06-.09-.36-.25-1.04-.2Z"/>
      <path class="cls-2" d="M52.57,79.05c2.25-.46,3.67-1.13,3.67-1.88s-1.42-1.43-3.67-1.89c-2.63-.53-4.57-2.47-5.1-5.1-.46-2.25-1.13-3.67-1.88-3.67s-1.43,1.42-1.88,3.67c-.53,2.63-2.48,4.57-5.1,5.1-2.25.46-3.67,1.13-3.67,1.89s1.42,1.43,3.67,1.88c2.63.53,4.57,2.48,5.1,5.1.46,2.25,1.13,3.67,1.88,3.67s1.43-1.43,1.88-3.67c.53-2.63,2.48-4.57,5.1-5.1Z"/>
      <path class="cls-2" d="M92.97,51.62c1.63.31,2.83,1.43,3.17,2.95.28,1.3.7,2.13,1.17,2.13s.89-.82,1.17-2.13c.33-1.52,1.54-2.64,3.17-2.95,1.4-.26,2.28-.65,2.28-1.09s-.88-.83-2.28-1.09c-1.63-.31-2.83-1.43-3.17-2.95-.28-1.3-.7-2.13-1.17-2.13s-.89.82-1.17,2.13c-.33,1.52-1.54,2.64-3.17,2.95-1.4.26-2.28.66-2.28,1.09s.88.82,2.28,1.09Z"/>
      <path class="cls-2" d="M107.24,60.4c.89.17,1.54.79,1.72,1.63.15.72.38,1.17.64,1.17s.48-.45.64-1.17c.18-.84.84-1.46,1.72-1.63.76-.15,1.24-.36,1.24-.6s-.48-.46-1.24-.6c-.89-.17-1.54-.79-1.72-1.63-.15-.72-.38-1.17-.64-1.17s-.48.45-.64,1.17c-.18.84-.84,1.46-1.72,1.63-.76.15-1.24.36-1.24.6s.48.45,1.24.6Z"/>
      <path class="cls-2" d="M151.67,117.16c0-4.69-.42-9.1-1.26-13.11-.84-4.03-2.12-7.7-3.81-10.91-2.37-4.51-5.33-7.78-9.05-10.01-9.91-5.93-29.1-5.37-37.36,3.73l-.63.69-.8-.48c-7.67-4.68-15.49-6.98-22.55-6.98-8.89,0-16.59,3.64-21.34,10.76-3.99,5.98-5.85,14.34-5.85,26.31,0,10.49,2.23,23.34,6.28,36.18,4.13,13.1,9.91,25.29,15.46,32.61,1.45,1.91,3.53,3.08,5.85,3.3,1.06.1,2.12,0,3.14-.28,1.02-.29,1.98-.77,2.84-1.42,1.86-1.42,3.02-3.51,3.25-5.88.8-8.32,4.2-35.46,14.51-35.46.21,0,.4.02.6.03.45-.06.93,0,1.43.17,5.05,1,7.79,5.7,8.76,10.39,0,.04.01.07.02.11.06.27.11.55.15.82l.23,1.43-1.45-.13c-2.59-.23-2.85-.26-3.73-.41-.08-.01-.17-.03-.26-.04l-.66-.11c-.46.1-.58.72-.58,1.05,0,.27.1,1.64,1.85,1.71.31.04.61.09.91.13,4.58.62,8.92.9,18.31.78,7.48-.09,13.93-.41,22.96-1.72,1.16-.22,1.99-1.67,1.89-2.49-.02-.19-.05-.33-.48-.29-2.41.37-3.06.45-5.42.73l-1.82.21.63-1.72c5.15-14.09,7.99-28.19,7.99-39.69ZM138.35,158.37l-.26.66-.71.05c-3.9.3-7.76.47-11.49.52-3,.04-6.03,0-9-.13l-.92-.04-.15-.91c-1.87-11.46-6.79-16.79-15.49-16.79-15.13,0-17.89,28.7-18.93,39.51-.11,1.13-.64,2.11-1.5,2.77-.39.3-.84.52-1.35.67-.4.11-.79.17-1.16.17-.13,0-.25,0-.37-.02-1.08-.1-2.05-.66-2.74-1.56-5.23-6.89-10.74-18.58-14.74-31.27-3.92-12.4-6.07-24.77-6.07-34.83,0-9.33,3.01-22.47,11.51-28.83,4.96-3.71,10.95-4.57,17.81-2.56,6.39,1.88,12.77,5.79,17.89,8.93,3.43,2.1,6.39,3.92,8.42,4.57,3.32,1.06,6.58,1.48,9.4,1.21,1.07-.1,1.43-.7,1.42-1.18-.01-.49-.4-1.07-1.47-1.12-6.01-.29-11.13-2.46-15.21-6.44l-.75-.74.68-.8c4.24-5,12.12-7.51,20.6-6.58,8.52.94,15.59,5.27,18.89,11.57,1.49,2.83,2.63,6.11,3.39,9.76.76,3.66,1.15,7.77,1.15,12.21,0,16.07-5.55,32.72-8.86,41.21Z"/>
      <path class="cls-2" d="M161.41,86.24c-1.39-.26-2.41-1.22-2.7-2.51-.24-1.11-.6-1.81-1-1.81s-.75.7-1,1.81c-.28,1.29-1.31,2.25-2.7,2.51-1.19.23-1.94.56-1.94.93s.75.7,1.94.93c1.39.26,2.41,1.22,2.7,2.51.24,1.11.6,1.81,1,1.81s.75-.7,1-1.81c.28-1.29,1.31-2.25,2.7-2.51,1.19-.23,1.94-.56,1.94-.93s-.75-.7-1.94-.93Z"/>
      <path class="cls-1" d="M100.34,24.51c-45.55,0-82.47,36.93-82.47,82.47,0,33.72,19.04,62.48,47.64,75.18,1.15,1.88,2.3,3.6,3.45,5.11,1.83,2.42,4.47,3.9,7.44,4.19.35.03.69.05,1.04.05.99,0,1.97-.14,2.93-.41,1.3-.37,2.51-.97,3.59-1.8,2.37-1.8,3.84-4.45,4.13-7.47,1.54-16.1,6.04-33.42,12.26-33.42,5.6,0,7.7,5.18,8.44,8.18-1.32-.12-1.5-.15-2.31-.29l-.94-.16h-.12c-1.64.09-2.82,1.5-2.81,3.35.02,1.83,1.28,3.84,3.9,3.93.98.14,1.93.26,2.91.37.18.3.29.55.29.72,0,.36.21.98.51,1.72l.07.61c.26,2.16.5,4.33.72,6.45-.76-.03-1.04-.04-1.23-.04-.16-.03-.48-.08-1.26-.18h-.05c-1.07-.1-2.03.36-2.62,1.25-.71,1.08-.74,2.58-.07,3.81.74,1.38,2.21,2.17,3.91,2.17h.02c.83.09,1.51.17,2.12.22.35.57.65,1.32.85,2.36.13.68.3,1.27.49,1.8-.02.56.12,1.12.46,1.61.63.91,1.4,1.72,2.3,2.39,1.08.82,2.29,1.43,3.59,1.8.96.27,1.94.41,2.93.41.35,0,.69-.02,1.04-.05,2.82-.27,5.33-1.64,7.15-3.84.01,0,.02-.01.03-.02,28.07-16,52.16-44.38,52.16-80.01,0-45.55-36.92-82.47-82.47-82.47ZM107.24,59.2c.89-.17,1.54-.79,1.72-1.63.15-.72.38-1.17.64-1.17s.48.45.64,1.17c.18.84.84,1.46,1.72,1.63.76.15,1.24.36,1.24.6s-.48.45-1.24.6c-.89.17-1.54.79-1.72,1.63-.15.72-.38,1.17-.64,1.17s-.48-.45-.64-1.17c-.18-.84-.84-1.46-1.72-1.63-.76-.15-1.24-.36-1.24-.6s.48-.46,1.24-.6ZM92.97,49.44c1.63-.31,2.83-1.43,3.17-2.95.28-1.3.7-2.13,1.17-2.13s.89.82,1.17,2.13c.33,1.52,1.54,2.64,3.17,2.95,1.4.26,2.28.66,2.28,1.09s-.88.82-2.28,1.09c-1.63.31-2.83,1.43-3.17,2.95-.28,1.3-.7,2.13-1.17,2.13s-.89-.82-1.17-2.13c-.33-1.52-1.54-2.64-3.17-2.95-1.4-.26-2.28-.65-2.28-1.09s.88-.83,2.28-1.09ZM45.58,87.83c-.75,0-1.43-1.43-1.88-3.67-.53-2.63-2.48-4.57-5.1-5.1-2.25-.46-3.67-1.13-3.67-1.88s1.42-1.43,3.67-1.89c2.63-.53,4.57-2.47,5.1-5.1.46-2.25,1.13-3.67,1.88-3.67s1.43,1.42,1.88,3.67c.53,2.63,2.48,4.57,5.1,5.1,2.25.46,3.67,1.13,3.67,1.89s-1.42,1.43-3.67,1.88c-2.63.53-4.57,2.48-5.1,5.1-.46,2.25-1.13,3.67-1.88,3.67ZM128.83,184.83c-.07.1-.14.19-.22.29-1.33,1.75-3.16,2.66-5.04,2.84-.92.09-1.83,0-2.69-.24-.87-.25-1.7-.66-2.44-1.22-.59-.45-1.12-.99-1.56-1.62-.26-.37-.28-.83-.07-1.22.22-.4.61-.62,1.06-.61,2.97.09,6.3.09,9.95-.07.46-.02.87.21,1.08.62.22.41.18.87-.1,1.24ZM142.62,175.69c-.38.76-1.32,1.61-2.54,1.68-7,.8-11.74.98-18.04,1.02-1.73.01-3.07.03-4.16.05-3.67.05-4.43.06-8.05-.34-1,0-1.72-.35-2.07-1-.24-.44-.24-.92-.13-1.27.03-.09.06-.17.1-.24.11-.17.25-.25.46-.25.02,0,.04,0,.06,0,.72.1,1.03.14,1.18.17.23.04.25.04.38.04.07,0,.18,0,.5,0,.34.01.9.03,1.89.09l1.32.07-.13-1.31c-.21-2.11-.44-4.27-.69-6.44,1.46.1,2.96.17,4.48.23.26,2.25.5,4.49.72,6.65l.1,1h1.01c.99.02,2,.02,3.04.02,2.48-.02,5.01-.09,7.54-.22l.62-.03.31-.54c1.25-2.2,2.49-4.58,3.69-7.09,1.68-.1,3.38-.22,5.07-.37-.91,1.99-1.86,3.94-2.83,5.8l-.95,1.84,2.06-.2c1.96-.18,2.16-.2,4.18-.46.68-.06.98.11,1.04.2.06.1.08.42-.15.88ZM144.87,158.36c2.37-.27,3.02-.35,5.42-.73.43-.04.46.09.48.29.1.82-.73,2.27-1.89,2.49-9.03,1.3-15.48,1.62-22.96,1.72-9.39.12-13.73-.16-18.31-.78-.3-.04-.6-.08-.91-.13-1.74-.06-1.84-1.43-1.85-1.71,0-.33.12-.96.58-1.05l.66.11c.1.02.18.03.26.04.88.15,1.14.17,3.73.41l1.45.13-.23-1.43c-.04-.27-.1-.54-.15-.82,0-.04-.01-.07-.02-.11-.97-4.69-3.72-9.39-8.76-10.39-.46-.09-.94-.15-1.43-.17-.2-.01-.39-.03-.6-.03-10.3,0-13.71,27.14-14.51,35.46-.23,2.38-1.38,4.47-3.25,5.88-.86.65-1.81,1.13-2.84,1.42-1.02.29-2.08.38-3.14.28-2.33-.22-4.41-1.4-5.85-3.3-5.55-7.32-11.33-19.51-15.46-32.61-4.05-12.84-6.28-25.68-6.28-36.18,0-11.96,1.86-20.33,5.85-26.31,4.75-7.12,12.45-10.76,21.34-10.76,7.07,0,14.88,2.3,22.55,6.98l.8.48.63-.69c8.27-9.1,27.45-9.66,37.36-3.73,3.72,2.23,6.69,5.5,9.05,10.01,1.68,3.21,2.96,6.88,3.81,10.91.84,4.01,1.26,8.43,1.26,13.11,0,11.51-2.84,25.6-7.99,39.69l-.63,1.72,1.82-.21ZM161.41,88.09c-1.39.26-2.41,1.22-2.7,2.51-.24,1.11-.6,1.81-1,1.81s-.75-.7-1-1.81c-.28-1.29-1.31-2.25-2.7-2.51-1.19-.23-1.94-.56-1.94-.93s.75-.7,1.94-.93c1.39-.26,2.41-1.22,2.7-2.51.24-1.11.6-1.81,1-1.81s.75.7,1,1.81c.28,1.29,1.31,2.25,2.7,2.51,1.19.23,1.94.56,1.94.93s-.75.7-1.94.93Z"/>
      <path class="cls-1" d="M102.37,146.4c-.5-.17-.98-.23-1.43-.17.5.03.97.08,1.43.17Z"/>
      <path class="cls-1" d="M146.05,104.95c-.76-3.65-1.9-6.93-3.39-9.76-3.31-6.3-10.37-10.63-18.89-11.57-8.48-.93-16.36,1.59-20.6,6.58l-.68.8.75.74c4.08,3.98,9.2,6.15,15.21,6.44,1.07.05,1.46.64,1.47,1.12.01.48-.35,1.07-1.42,1.18-2.82.27-6.08-.15-9.4-1.21-2.03-.65-4.99-2.47-8.42-4.57-5.12-3.14-11.5-7.05-17.89-8.93-6.86-2.01-12.85-1.15-17.81,2.56-8.5,6.36-11.51,19.51-11.51,28.83,0,10.06,2.15,22.43,6.07,34.83,4,12.69,9.51,24.38,14.74,31.27.68.9,1.66,1.46,2.74,1.56.12.01.25.02.37.02.38,0,.77-.06,1.16-.17.51-.15.96-.37,1.35-.67.86-.65,1.4-1.63,1.5-2.77,1.04-10.81,3.79-39.51,18.93-39.51,8.7,0,13.62,5.34,15.49,16.79l.15.91.92.04c2.97.13,6,.17,9,.13,3.72-.04,7.59-.22,11.49-.52l.71-.05.26-.66c3.31-8.49,8.86-25.15,8.86-41.21,0-4.44-.39-8.55-1.15-12.21Z"/>
    </g>
  </g>
  <g>
    <path class="cls-1" d="M358.67,101.64c-3.24-46.29-43.39-81.18-89.67-77.94-46.28,3.24-81.18,43.39-77.94,89.67,2.31,33.03,23.42,60.25,52.14,71.96,0,0,0,.01,0,.01,0,0,9.27,5.59,28.21,6.1,3.07.12,6.18.09,9.32-.13.42-.03.84-.08,1.26-.12,14.5-1.01,33.12-4.93,56.02-14.76,1.15-.5,2.26-1.07,3.37-1.64,5.84-2.99,8.69-8.83,8.27-15.97-.65-11.09-10.33-19.54-21.62-18.88h-.12c-1.77-10.76-11.59-18.67-22.92-18.01-10.39.61-18.68,8.24-20.37,17.91-.94-.11-1.91-.13-2.88-.08-4.41.26-8.32,2.19-11.14,5.13-2.02-7.39-8.89-12.61-16.73-12.15-5.23.31-9.75,3.09-12.51,7.16,0,0-1.83,2.6-2.83,5.28-13.95-12.45-12.96-30.31-8.26-39.93,2.38-4.88,11.65-10.64,21.65-15.65,1.93-1.49,4.08-2.66,6.31-3.72,2.15-1.46,4.4-2.73,6.66-4.07,4.49-2.66,8.81-5.57,13.37-8.11-.91-1.09-2.42-1.57-3.76-1.08-.31.11-5.55,2.02-12.59,5.02.75-1.85,1.88-3.91,2.88-5.74.24-.43.47-.86.7-1.29,2.12-3.92,7.68-7.82,15.24-10.69,5.99-2.28,16.13,1.46,27.13,9.99,11.45,8.89,15.12,19.79,18.43,32.09,3.2,11.91,10.39,20.99,16.73,29,.75.95,1.47,1.86,2.18,2.77,2.56,2.39,4.65,5.22,6.14,8.38,1.01-2.22,1.96-4.47,2.78-6.79,3.7-10.5,5.37-21.91,4.54-33.72ZM275.99,49.92l-3.83,3.65,2.51.32s0,0,.01,0c.57.08.97.6.89,1.17-.07.57-.6.98-1.17.91l-4.69-.6s0,0-.01,0c-.39-.06-.72-.33-.85-.71-.13-.38-.02-.81.27-1.08l3.83-3.65-2.51-.32c-.58-.07-.98-.6-.91-1.17.07-.57.6-.98,1.17-.91l4.69.6c.4.04.74.33.86.71.13.38.02.81-.27,1.08ZM289.04,45.11l-6.25,4.45s-.01,0-.02.01c-.53.37-1.23.4-1.8.09-.57-.32-.91-.94-.87-1.59l.55-8.58-3.34,2.37c-.77.56-1.83.37-2.37-.4s-.37-1.83.4-2.37l6.25-4.44c.53-.39,1.24-.42,1.81-.1s.91.94.87,1.6l-.55,8.58,3.34-2.38h.02c.76-.54,1.81-.36,2.35.4.54.77.37,1.83-.4,2.37ZM300,44.78l-4.5,1.46s0,0-.01,0c-.38.12-.8.01-1.07-.28-.28-.29-.36-.72-.22-1.1l1.91-4.94-2.4.78c-.56.18-1.14-.12-1.32-.67-.18-.55.12-1.14.67-1.32l4.5-1.46c.38-.13.81-.02,1.08.28.28.29.36.72.22,1.1l-1.9,4.94,2.4-.78s0,0,.01,0c.55-.17,1.13.13,1.31.68.18.55-.12,1.14-.67,1.32Z"/>
    <path class="cls-1" d="M292.18,105.47c-.98-.22-2.14-.69-2.29-1.82-.16-1.26,1.23-1.74,2.79-1.62,3.33.26,5.01-1.44,5.78-4.4.25-.97.62-2.46,1.78-2.4,1.5.08,1.47,1.92,1.41,2.94-.3,4.66-3.84,8.3-9.48,7.3Z"/>
    <path class="cls-1" d="M272.1,122.2c-1.13,4.14-4.38,5.76-8.53,5.59-1.1-.04-2.5-.44-2.52-1.74-.01-1.12,1.19-1.42,2.3-1.52,2.77-.23,4.92-1.37,5.96-4.18.34-.91.67-2.34,2.1-1.8,1.06.4,1,2.26.69,3.64Z"/>
  </g>
</svg>